<svg width="5119" height="1002" viewBox="0 0 5119 1002" fill="none" xmlns="http://www.w3.org/2000/svg">
<path d="M0 668V334L682 0V334L0 668Z" fill="url(#paint0_linear_7655_78)"/>
<path d="M1364 668V334L682 0V334L1364 668Z" fill="url(#paint1_linear_7655_78)"/>
<path d="M0 334V668L682 1002V668L0 334Z" fill="url(#paint2_linear_7655_78)"/>
<path d="M1364 334V668L682 1002V668L1364 334Z" fill="url(#paint3_linear_7655_78)"/>
<path d="M2312.93 711.818C2260.76 741.939 2195.98 757 2118.51 757C2032.6 757 1964.88 733.173 1915.29 685.462C1865.71 637.75 1841 572.094 1841 488.496C1841 404.897 1868.05 335.771 1922.22 282.705C1976.38 229.699 2048.39 203.166 2138.29 203.166C2194.92 203.166 2244.8 210.991 2288.05 226.698V339.83C2246.86 315.945 2196.39 304.002 2136.82 304.002C2086.88 304.002 2046.22 320.239 2014.82 352.714C1983.42 385.189 1967.7 428.606 1967.7 482.848C1967.7 537.09 1981.78 580.448 2009.95 610.57C2038.12 640.691 2076.2 655.752 2124.15 655.752C2152.96 655.752 2175.79 651.634 2192.69 643.456V538.914H2085.77V442.549H2312.99V711.818H2312.93Z" fill="white"/>
<path d="M2587.1 756.999C2523.55 756.999 2473.55 739.115 2437.17 703.404C2400.78 667.694 2382.59 619.217 2382.59 557.974C2382.59 496.732 2401.49 445.255 2439.22 409.544C2476.95 373.834 2528.01 355.949 2592.32 355.949C2656.64 355.949 2705.29 373.834 2741.32 409.544C2777.3 445.255 2795.31 492.496 2795.31 551.268C2795.31 614.746 2776.77 664.929 2739.62 701.757C2702.47 738.585 2651.65 756.999 2587.1 756.999ZM2590.09 446.313C2562.28 446.313 2540.68 455.903 2525.31 475.082C2509.93 494.261 2502.19 521.382 2502.19 556.504C2502.19 629.925 2531.76 666.694 2590.86 666.694C2649.95 666.694 2675.42 628.983 2675.42 553.562C2675.42 482.141 2646.96 446.372 2590.09 446.372V446.313Z" fill="white"/>
<path d="M3053.46 756.999C2989.91 756.999 2939.91 739.115 2903.52 703.404C2867.14 667.694 2848.95 619.217 2848.95 557.974C2848.95 496.732 2867.79 445.255 2905.58 409.544C2943.31 373.834 2994.37 355.949 3058.68 355.949C3123 355.949 3171.65 373.834 3207.68 409.544C3243.71 445.255 3261.73 492.496 3261.73 551.268C3261.73 614.746 3243.18 664.929 3206.04 701.757C3168.89 738.585 3118.07 756.999 3053.52 756.999H3053.46ZM3056.45 446.313C3028.64 446.313 3007.04 455.903 2991.67 475.082C2976.29 494.261 2968.55 521.382 2968.55 556.504C2968.55 629.925 2998.12 666.694 3057.22 666.694C3116.31 666.694 3141.78 628.983 3141.78 553.562C3141.78 482.141 3113.32 446.372 3056.45 446.372V446.313Z" fill="white"/>
<path d="M3711.36 747.641H3593.64V694.988H3592.17C3565.35 736.346 3525.98 756.995 3474.1 756.995C3426.45 756.995 3388.07 740.111 3359.02 706.401C3329.98 672.691 3315.42 625.567 3315.42 565.03C3315.42 504.493 3331.44 451.134 3363.48 413.07C3395.52 375.007 3437.48 355.945 3489.42 355.945C3538.6 355.945 3572.87 373.595 3592.23 408.952H3593.7V181.512H3711.42V747.641H3711.36ZM3595.87 561.677V532.909C3595.87 508.023 3588.65 487.373 3574.27 470.901C3559.84 454.487 3541.12 446.251 3518.06 446.251C3492 446.251 3471.64 456.546 3456.97 477.078C3442.3 497.61 3434.96 525.79 3434.96 561.677C3434.96 595.269 3442.06 621.155 3456.2 639.334C3470.35 657.512 3489.95 666.572 3515.06 666.572C3540.18 666.572 3558.31 656.983 3573.34 637.804C3588.36 618.625 3595.87 593.269 3595.87 561.618V561.677Z" fill="white"/>
<path d="M3821.98 747.645V212.166H4016.4C4076.02 212.166 4121.79 223.109 4153.84 245.052C4185.88 266.938 4201.9 297.824 4201.9 337.652C4201.9 366.538 4192.16 391.777 4172.67 413.485C4153.19 435.135 4128.25 450.196 4097.97 458.667V460.138C4135.94 464.845 4166.34 478.964 4189.05 502.32C4211.76 525.735 4223.14 554.209 4223.14 587.86C4223.14 636.925 4205.65 675.812 4170.62 704.581C4135.59 733.349 4087.82 747.704 4027.2 747.704H3821.92L3821.98 747.645ZM3942.28 301.001V427.958H3995.16C4019.98 427.958 4039.52 421.898 4053.84 409.838C4068.16 397.777 4075.26 381.128 4075.26 360.008C4075.26 320.65 4045.98 301.001 3987.35 301.001H3942.28ZM3942.28 517.616V658.751H4007.48C4035.3 658.751 4057.07 652.28 4072.85 639.337C4088.64 626.394 4096.5 608.686 4096.5 586.33C4096.5 563.975 4088.76 548.09 4073.2 535.912C4057.71 523.734 4036 517.616 4008.18 517.616H3942.22H3942.28Z" fill="white"/>
<path d="M4481.29 756.999C4417.73 756.999 4367.73 739.115 4331.35 703.404C4294.97 667.694 4276.77 619.217 4276.77 557.974C4276.77 496.732 4295.67 445.255 4333.4 409.544C4371.14 373.834 4422.19 355.949 4486.51 355.949C4550.83 355.949 4599.47 373.834 4635.51 409.544C4671.54 445.255 4689.49 492.496 4689.49 551.268C4689.49 614.746 4670.95 664.929 4633.8 701.757C4596.66 738.585 4545.84 756.999 4481.29 756.999ZM4484.28 446.313C4456.46 446.313 4434.87 455.903 4419.49 475.082C4404.12 494.261 4396.37 521.382 4396.37 556.504C4396.37 629.925 4425.95 666.694 4485.04 666.694C4544.14 666.694 4569.6 628.983 4569.6 553.562C4569.6 482.141 4541.14 446.372 4484.28 446.372V446.313Z" fill="white"/>
<path d="M5119 365.236L4993.07 550.436L5118.24 747.637H4982.62L4927.52 644.565C4923.06 636.329 4917.72 624.798 4911.5 609.855H4910.03C4906.33 620.327 4901.23 631.505 4894.77 643.448L4839.26 747.637H4704.05L4832.92 557.202L4711.86 365.236H4848.18L4902.58 472.426C4909.79 486.604 4914.84 498.547 4917.83 508.254H4919.3C4923.29 496.547 4928.63 484.369 4935.32 471.661L4990.84 365.236H5119Z" fill="white"/>
<defs>
<linearGradient id="paint0_linear_7655_78" x1="682" y1="212.545" x2="-0.0586373" y2="524.15" gradientUnits="userSpaceOnUse">
<stop stop-color="#E04592"/>
<stop offset="1" stop-color="#6B4E9B"/>
</linearGradient>
<linearGradient id="paint1_linear_7655_78" x1="682" y1="159.915" x2="1364.02" y2="333.919" gradientUnits="userSpaceOnUse">
<stop offset="0.591346" stop-color="#6A4E9B"/>
<stop offset="1" stop-color="#E94871"/>
</linearGradient>
<linearGradient id="paint2_linear_7655_78" x1="9.16406e-08" y1="539.461" x2="682.055" y2="838.924" gradientUnits="userSpaceOnUse">
<stop stop-color="#E94871"/>
<stop offset="1" stop-color="#6B4E9B"/>
</linearGradient>
<linearGradient id="paint3_linear_7655_78" x1="699.202" y1="1002" x2="1364.17" y2="334.165" gradientUnits="userSpaceOnUse">
<stop stop-color="#8F4F9A"/>
<stop offset="1" stop-color="#E94871"/>
</linearGradient>
</defs>
</svg>
